<?xml version="1.0" standalone="no"?>
<!DOCTYPE svg PUBLIC "-//W3C//DTD SVG 20010904//EN"
 "http://www.w3.org/TR/2001/REC-SVG-20010904/DTD/svg10.dtd">
<svg version="1.0" xmlns="http://www.w3.org/2000/svg"
 width="500.000000pt" height="500.000000pt" viewBox="0 0 500.000000 500.000000"
 preserveAspectRatio="xMidYMid meet">

<g transform="translate(0.000000,500.000000) scale(0.100000,-0.100000)"
fill="#000000" stroke="none">
<path d="M2942 4065 c-102 -31 -178 -120 -203 -233 -10 -47 2 -131 26 -194 7
-17 -25 -18 -587 -18 -449 0 -597 -3 -606 -12 -7 -7 -12 -44 -12 -95 l0 -82
-97 -3 -98 -3 -3 -745 c-2 -692 -1 -746 15 -758 13 -9 128 -12 492 -12 l476
-1 20 -31 c35 -54 70 -73 135 -73 65 0 100 19 135 73 l20 31 476 1 c364 0 479
3 492 13 16 11 17 65 15 757 l-3 745 -97 3 -98 3 0 75 c0 105 -7 114 -80 114
-33 0 -60 4 -60 9 0 5 7 28 15 51 8 23 15 72 15 109 0 196 -197 336 -388 276z
m213 -85 c51 -31 92 -91 106 -156 11 -50 10 -60 -16 -140 -30 -93 -193 -426
-211 -431 -14 -5 -187 355 -214 445 -25 82 -22 129 10 192 21 41 69 86 115
107 46 21 163 12 210 -17z m-690 -1115 l0 -690 -417 -3 -418 -2 0 688 c0 379
3 692 7 695 4 4 191 6 417 5 l411 -3 0 -690z m435 487 c134 -263 130 -262 218
-100 33 62 82 157 108 211 l47 98 46 -3 46 -3 3 -692 2 -693 -420 0 -420 0 0
688 c0 379 3 692 7 695 3 4 63 7 132 7 l126 0 105 -208z m-1340 -604 c0 -369
4 -619 10 -628 8 -13 123 -15 916 -18 803 -2 910 -1 931 13 l23 15 0 615 0
615 65 0 65 0 0 -690 0 -690 -487 -2 -487 -3 -7 -35 c-9 -45 -41 -70 -89 -70
-48 0 -80 25 -89 70 l-7 35 -487 3 -487 2 0 690 0 690 65 0 65 0 0 -612z"/>
<path d="M2973 3910 c-110 -50 -112 -204 -3 -261 45 -24 81 -24 129 1 107 54
108 204 1 258 -54 27 -73 27 -127 2z m111 -71 c37 -29 37 -89 0 -118 -35 -27
-66 -26 -100 2 -35 31 -37 77 -4 112 29 31 68 32 104 4z"/>
<path d="M1796 3347 c-10 -7 -17 -22 -14 -33 3 -18 15 -19 200 -22 195 -2 197
-2 203 20 14 41 -14 48 -200 48 -126 0 -176 -3 -189 -13z"/>
<path d="M1784 3185 c-15 -38 2 -46 88 -43 81 3 83 4 83 28 0 24 -2 25 -83 28
-67 2 -83 0 -88 -13z"/>
<path d="M2054 3185 c-4 -8 -4 -22 0 -30 5 -13 29 -15 163 -13 l158 3 0 25 0
25 -158 3 c-134 2 -158 0 -163 -13z"/>
<path d="M1789 3034 c-9 -11 -10 -20 -2 -32 8 -13 26 -17 83 -17 57 0 75 4 83
17 20 31 -8 48 -83 48 -49 0 -71 -4 -81 -16z"/>
<path d="M2053 3034 c-3 -9 -2 -24 4 -33 9 -14 33 -16 158 -16 127 0 149 2
158 17 8 12 7 21 -2 32 -20 24 -309 24 -318 0z"/>
<path d="M1880 2865 c-10 -12 -10 -18 0 -30 11 -13 6 -15 -34 -15 -38 0 -46
-3 -46 -18 0 -15 7 -18 45 -15 l45 4 0 -246 c0 -157 4 -245 10 -245 6 0 10 43
10 108 1 59 2 168 3 242 l2 135 48 0 c38 0 47 3 47 18 0 14 -9 17 -46 17 -39
0 -45 3 -40 16 6 16 -9 44 -24 44 -4 0 -13 -7 -20 -15z"/>
<path d="M2172 2764 c-61 -43 -65 -122 -7 -173 33 -29 34 -32 37 -117 2 -71 6
-89 21 -98 31 -19 47 17 47 107 0 77 1 79 35 111 30 28 35 40 35 77 -1 67 -44
109 -112 109 -19 0 -44 -7 -56 -16z m98 -74 c11 -21 -13 -60 -39 -60 -41 0
-55 49 -20 74 24 16 45 12 59 -14z"/>
<path d="M1944 2595 c-10 -26 1 -35 13 -10 6 14 7 25 2 25 -5 0 -12 -7 -15
-15z"/>
<path d="M1771 2584 c0 -11 3 -14 6 -6 3 7 2 16 -1 19 -3 4 -6 -2 -5 -13z"/>
<path d="M1862 2530 c0 -14 2 -19 5 -12 2 6 2 18 0 25 -3 6 -5 1 -5 -13z"/>
<path d="M2862 3078 c-23 -23 -11 -44 49 -81 l62 -39 -44 -25 c-60 -35 -79
-53 -79 -74 0 -35 36 -31 107 12 37 23 73 42 78 42 6 0 41 -19 79 -43 53 -34
72 -41 85 -33 33 21 24 42 -39 82 l-61 40 58 38 c59 39 73 67 43 86 -12 7 -35
-3 -92 -38 l-76 -46 -71 45 c-78 50 -81 52 -99 34z"/>
<path d="M2629 2464 c-9 -11 -10 -20 -2 -32 8 -14 27 -17 103 -17 76 0 95 3
103 17 8 12 7 21 -2 32 -10 12 -33 16 -101 16 -68 0 -91 -4 -101 -16z"/>
<path d="M2636 2317 c-10 -7 -17 -22 -14 -33 3 -18 15 -19 235 -22 216 -2 233
-1 242 16 23 43 5 47 -226 50 -172 2 -222 0 -237 -11z"/>
</g>
</svg>
